<svg width="200" height="25" viewBox="0 0 200 25" fill="none" xmlns="http://www.w3.org/2000/svg">
<path d="M15.9346 5.61311C16.021 6.61312 15.8822 7.58338 15.5182 8.5216C15.1518 9.45982 14.6148 10.398 13.9072 11.3363C13.1973 12.2745 12.3417 13.2402 11.336 14.2287C10.3303 15.2196 9.24264 16.2676 8.06854 17.3729C7.52927 17.8741 7.07419 18.3226 6.7033 18.7185C6.33242 19.1143 6.01614 19.4942 5.75674 19.8603C5.49735 20.2265 5.27436 20.5789 5.0855 20.9244C4.89664 21.2677 4.72599 21.6384 4.57354 22.0343C6.23685 22.0343 7.86603 21.7025 9.46108 21.0411C11.0561 20.3775 12.4009 19.5125 13.4931 18.4439C13.5864 18.5491 13.7047 18.7139 13.848 18.9381C13.9914 19.1601 14.1234 19.4164 14.2417 19.7025C14.36 19.9885 14.4692 20.2974 14.5716 20.6247C14.6717 20.9542 14.7377 21.2768 14.765 21.5949C14.8105 22.1258 14.7354 22.5812 14.542 22.9633C14.3554 23.1968 14.0733 23.3775 13.7001 23.5034C13.327 23.6293 12.8833 23.7254 12.369 23.7894C11.8548 23.8535 11.295 23.8855 10.6921 23.8855H6.95132C6.32787 23.8855 5.73399 23.9245 5.16742 24.0045C4.60084 24.0823 4.08205 24.2013 3.6065 24.3592C3.13094 24.5171 2.73957 24.7299 2.43012 25C1.91133 24.7689 1.42895 24.4302 0.985245 23.9817C0.541543 23.5309 0.211611 23.0457 0 22.524C0.0728125 21.9176 0.241192 21.3524 0.507412 20.8283C0.773633 20.3043 1.1468 19.762 1.62918 19.1967C2.10929 18.6315 2.71682 18.0205 3.44949 17.3615C4.18217 16.7024 5.04909 15.9221 6.05254 15.0228C7.16976 14.0182 8.18003 13.0777 9.08109 12.1967C9.98214 11.318 10.7353 10.4758 11.3406 9.67035C11.9458 8.86485 12.3963 8.07079 12.6921 7.2836C12.9879 6.4987 13.0994 5.69778 13.0289 4.88313C12.9402 3.85795 12.6102 3.05245 12.0391 2.46664C11.468 1.88082 10.7558 1.58791 9.90478 1.58791C9.3018 1.58791 8.73295 1.72979 8.19596 2.01126C7.65897 2.29272 7.19479 2.68174 6.79887 3.17374C6.40523 3.66573 6.10033 4.23095 5.88644 4.8694C5.67255 5.50785 5.59519 6.18291 5.65662 6.89458C5.70213 7.41862 5.82045 7.88315 6.01159 8.29048C6.20272 8.6978 6.48259 9.11199 6.85348 9.53076C6.56678 9.59254 6.30056 9.62458 6.05027 9.62458C5.55196 9.62458 5.0855 9.5422 4.65545 9.37286C4.2254 9.20581 3.84541 8.97469 3.52003 8.68178C3.19237 8.38888 2.92843 8.04333 2.72819 7.64516C2.52796 7.24699 2.40509 6.80763 2.36413 6.32708C2.29587 5.53302 2.45742 4.77329 2.85334 4.05246C3.24698 3.33163 3.79535 2.69776 4.49617 2.15313C5.197 1.60851 6.00703 1.17601 6.92402 0.851065C7.841 0.52612 8.78984 0.363647 9.76598 0.363647C10.6193 0.363647 11.4088 0.489506 12.1369 0.738936C12.8651 0.988366 13.4999 1.34992 14.0392 1.81904C14.5784 2.28815 15.013 2.8465 15.3384 3.49182C15.6638 4.13942 15.8618 4.84652 15.93 5.61769" fill="white"/>
<path d="M34.8171 5.61311C34.9036 6.61312 34.7648 7.58338 34.4007 8.5216C34.0344 9.45982 33.4974 10.398 32.7897 11.3363C32.0798 12.2745 31.2243 13.2402 30.2185 14.2287C29.2128 15.2196 28.1252 16.2676 26.9511 17.3729C26.4118 17.8741 25.9567 18.3226 25.5858 18.7185C25.2149 19.1143 24.8987 19.4942 24.6393 19.8603C24.3799 20.2265 24.1569 20.5789 23.968 20.9244C23.7792 21.2677 23.6085 21.6384 23.4561 22.0343C25.1194 22.0343 26.7486 21.7025 28.3436 21.0411C29.9387 20.3775 31.2834 19.5125 32.3756 18.4439C32.4689 18.5491 32.5872 18.7139 32.7306 18.9381C32.8739 19.1601 33.0059 19.4164 33.1242 19.7025C33.2425 19.9885 33.3517 20.2974 33.4541 20.6247C33.5543 20.9542 33.6202 21.2768 33.6475 21.5949C33.6931 22.1258 33.618 22.5812 33.4246 22.9633C33.238 23.1968 32.9558 23.3775 32.5827 23.5034C32.2095 23.6293 31.7658 23.7254 31.2516 23.7894C30.7373 23.8535 30.1776 23.8855 29.5746 23.8855H25.8316C25.2081 23.8855 24.6142 23.9245 24.0477 24.0045C23.4811 24.0823 22.9623 24.2013 22.4867 24.3592C22.0112 24.5171 21.6198 24.7299 21.3104 25C20.7916 24.7689 20.3092 24.4302 19.8655 23.9817C19.4218 23.5309 19.0919 23.0457 18.8802 22.524C18.9531 21.9176 19.1214 21.3524 19.3877 20.8283C19.6539 20.3043 20.027 19.762 20.5094 19.1967C20.9895 18.6315 21.5971 18.0205 22.3297 17.3615C23.0624 16.7024 23.9293 15.9221 24.9328 15.0228C26.05 14.0182 27.0603 13.0777 27.9613 12.1967C28.8624 11.318 29.6155 10.4758 30.2208 9.67035C30.8261 8.86485 31.2766 8.07079 31.5724 7.2836C31.8682 6.4987 31.9797 5.69778 31.9091 4.88313C31.8204 3.85795 31.4905 3.05245 30.9194 2.46664C30.3482 1.88082 29.636 1.58791 28.785 1.58791C28.1821 1.58791 27.6132 1.72979 27.0762 2.01126C26.5392 2.29272 26.075 2.68174 25.6791 3.17374C25.2855 3.66573 24.9806 4.23095 24.7667 4.8694C24.5528 5.50785 24.4754 6.18291 24.5369 6.89458C24.5824 7.41862 24.7007 7.88315 24.8918 8.29048C25.083 8.6978 25.3628 9.11199 25.7337 9.53076C25.447 9.59254 25.1808 9.62458 24.9305 9.62458C24.4322 9.62458 23.9658 9.5422 23.5357 9.37286C23.1057 9.20581 22.7257 8.97469 22.4003 8.68178C22.0726 8.38888 21.8087 8.04333 21.6084 7.64516C21.4082 7.24699 21.2853 6.80763 21.2444 6.32708C21.1761 5.53302 21.3377 4.77329 21.7336 4.05246C22.1272 3.33163 22.6756 2.69776 23.3764 2.15313C24.0772 1.60851 24.8873 1.17601 25.8043 0.851065C26.7213 0.52612 27.6701 0.363647 28.6462 0.363647C29.4995 0.363647 30.2891 0.489506 31.0172 0.738936C31.7453 0.988366 32.3802 1.34992 32.9194 1.81904C33.4587 2.28815 33.8933 2.8465 34.2187 3.49182C34.5441 4.13942 34.742 4.84652 34.8103 5.61769" fill="white"/>
<path d="M41.3423 18.7782C41.4629 20.1764 41.7996 21.1626 42.348 21.7393C42.8964 22.3137 43.6563 22.6844 44.6279 22.8491C45.5631 22.8491 46.4232 22.5196 47.2082 21.8606C47.9932 21.2015 48.6941 20.3617 49.313 19.3411C49.9296 18.3205 50.4711 17.1878 50.9353 15.9406C51.3995 14.6935 51.7727 13.4509 52.0616 12.2152C52.3483 10.9772 52.5486 9.80786 52.6601 8.70487C52.7716 7.60189 52.7966 6.68884 52.7329 5.96801C52.635 4.83528 52.4234 3.91307 52.1026 3.2014C51.7795 2.48972 51.313 2.0618 50.6964 1.91764C49.7498 2.04121 48.8533 2.4165 48.0023 3.0435C47.1536 3.67051 46.3686 4.4577 45.6496 5.40279C44.9306 6.34788 44.2912 7.41196 43.7291 8.59275C43.1671 9.77582 42.6938 10.9726 42.3116 12.1855C41.9293 13.3983 41.6517 14.5791 41.4811 15.7301C41.3104 16.8811 41.2649 17.8995 41.3423 18.7828M43.0647 24.2336C42.3025 24.0871 41.5926 23.8629 40.9327 23.5608C40.2706 23.2565 39.6949 22.84 39.2011 22.3068C38.7074 21.7736 38.2978 21.1169 37.9679 20.332C37.6402 19.5494 37.4263 18.5928 37.3285 17.4624C37.217 16.1878 37.2784 14.872 37.515 13.5127C37.7494 12.1557 38.1294 10.833 38.6505 9.54699C39.1715 8.26093 39.8155 7.03896 40.5777 5.87876C41.34 4.71857 42.1933 3.70483 43.1353 2.83755C44.0773 1.97027 45.0944 1.28147 46.1843 0.768885C47.2719 0.256295 48.3983 0 49.5633 0C50.437 0 51.2038 0.162473 51.866 0.487418C52.5281 0.812363 53.0969 1.26088 53.5748 1.83754C54.0503 2.41192 54.4281 3.103 54.7056 3.9085C54.9832 4.714 55.163 5.58814 55.2449 6.52866C55.3519 7.76436 55.3132 9.05957 55.1311 10.4211C54.9468 11.7804 54.6328 13.1099 54.1846 14.4074C53.7363 15.7049 53.1629 16.9452 52.4644 18.126C51.7658 19.3091 50.9467 20.348 50.007 21.2496C49.0672 22.1489 48.016 22.872 46.8578 23.4144C45.6996 23.959 44.4345 24.2313 43.0625 24.2313" fill="white"/>
<path d="M152.78 16.1463C152.78 14.9587 152.919 13.7939 153.196 12.6498C153.474 11.5056 153.865 10.4186 154.37 9.39344C154.876 8.36826 155.479 7.42546 156.177 6.56962C156.876 5.71378 157.642 4.97236 158.475 4.34306C159.308 3.71606 160.198 3.22864 161.14 2.88081C162.082 2.53298 163.051 2.35907 164.045 2.35907C165.208 2.35907 166.111 2.60392 166.76 3.09592C167.408 3.58791 167.732 4.27213 167.732 5.15314C167.732 5.49181 167.684 5.83964 167.593 6.19433C167.499 6.54903 167.365 6.90143 167.188 7.24926C167.01 7.59709 166.805 7.93119 166.569 8.25156C166.332 8.57421 166.073 8.85339 165.786 9.08909C165.347 9.02044 164.969 8.82135 164.648 8.49183C164.328 8.16231 164.127 7.77558 164.043 7.33622C164.632 6.84422 165.099 6.33392 165.445 5.79845C165.791 5.26527 165.964 4.77785 165.964 4.33849C165.964 3.59249 165.499 3.22178 164.573 3.22178C164.186 3.22178 163.786 3.30187 163.374 3.46205C162.96 3.62224 162.544 3.84649 162.123 4.13482C161.702 4.42316 161.292 4.77098 160.899 5.17602C160.503 5.58335 160.136 6.03186 159.8 6.52157C157.458 9.90832 156.289 13.3729 156.289 16.9129C156.289 18.1669 156.482 19.1738 156.869 19.9358C157.256 20.6979 157.77 21.1464 158.409 21.2814C159.133 21.112 160.052 20.6475 161.162 19.8832C162.273 19.1212 163.486 18.1303 164.801 16.9106C164.969 17.08 165.069 17.2585 165.103 17.4438C164.614 18.0846 164.109 18.7001 163.588 19.2905C163.065 19.8809 162.548 20.421 162.034 20.9084C161.52 21.3981 161.015 21.826 160.519 22.199C160.023 22.5697 159.563 22.8558 159.142 23.0594C157.053 23.0594 155.469 22.4736 154.393 21.3043C153.315 20.1349 152.775 18.4118 152.775 16.1418" fill="white"/>
<path d="M170.858 13.9954C170.572 14.3845 170.303 14.8078 170.051 15.2655C169.798 15.7231 169.58 16.1854 169.393 16.6499C169.206 17.1167 169.065 17.5653 168.963 17.9955C168.863 18.428 168.81 18.8124 168.81 19.1511C168.81 19.5584 168.876 19.9474 169.013 20.3204C169.147 20.6934 169.3 20.904 169.468 20.9543C170.226 20.785 170.92 20.4669 171.552 20.0023C172.185 19.5378 172.731 18.9566 173.195 18.2632C173.659 17.5698 174.021 16.7804 174.28 15.8993C174.542 15.0183 174.672 14.0778 174.672 13.0801C174.672 12.6407 174.647 12.2929 174.597 12.0389C174.547 11.7849 174.463 11.5652 174.344 11.3776C173.602 11.5973 172.943 11.9542 172.362 12.4439C171.782 12.9359 171.279 13.4508 170.858 13.9932M169.57 21.9955C168.61 21.8948 167.843 21.4715 167.272 20.7255C166.699 19.9795 166.414 19.0321 166.414 17.8811C166.414 17.2037 166.515 16.5012 166.717 15.7735C166.92 15.0458 167.206 14.3387 167.575 13.6522C167.946 12.9657 168.383 12.3181 168.888 11.7094C169.393 11.0984 169.939 10.5744 170.531 10.135C171.457 9.44164 172.324 9.09381 173.131 9.09381C173.671 9.38214 174.201 9.98398 174.722 10.897C174.806 10.897 174.881 10.8924 174.949 10.8833C175.018 10.8741 175.093 10.8696 175.177 10.8696C176.069 10.8696 176.515 11.6659 176.515 13.2586C176.515 14.325 176.342 15.3387 175.996 16.2952C175.65 17.2518 175.17 18.1213 174.556 18.8994C173.941 19.6797 173.209 20.3342 172.358 20.8673C171.507 21.4005 170.576 21.7781 169.566 21.9978" fill="white"/>
<path d="M181.683 21.4647C182.272 21.261 182.861 20.8125 183.451 20.1191C184.04 19.4258 184.57 18.6066 185.041 17.6683C185.512 16.7278 185.897 15.7209 186.19 14.6454C186.484 13.5699 186.632 12.5333 186.632 11.5333V11.0001C186.632 10.9314 186.622 10.8651 186.607 10.7964C186.201 10.9658 185.774 11.2541 185.319 11.6591C184.864 12.0665 184.408 12.5356 183.956 13.0688C183.501 13.6019 183.071 14.1832 182.668 14.8079C182.263 15.4349 181.901 16.0619 181.582 16.6889C181.262 17.3159 181.009 17.9178 180.825 18.4921C180.64 19.0688 180.547 19.5768 180.547 20.0162C180.547 20.8629 180.927 21.3457 181.685 21.4647M184.261 9.24492C184.597 9.24492 184.984 9.34561 185.423 9.54927C185.86 9.75294 186.249 10.0161 186.586 10.3365C186.502 9.65911 186.397 9.02066 186.27 8.41883C186.142 7.81699 185.958 7.19456 185.715 6.55154C185.471 5.90851 185.146 5.20599 184.743 4.44397C184.338 3.68195 183.833 2.81009 183.228 1.82839C183.278 1.67507 183.391 1.49887 183.569 1.2952C183.746 1.09154 183.949 0.901609 184.174 0.723118C184.402 0.544627 184.636 0.389019 184.882 0.254007C185.125 0.118994 185.357 0.0343252 185.576 0C186.047 0.524031 186.493 1.18079 186.914 1.96798C187.335 2.75517 187.706 3.60186 188.024 4.50804C188.345 5.41423 188.593 6.35016 188.77 7.31585C188.948 8.28153 189.037 9.20373 189.037 10.0847C189.037 10.9658 188.939 11.8719 188.745 12.8033C188.552 13.7347 188.281 14.6454 187.938 15.5333C187.592 16.4235 187.191 17.2656 186.738 18.0619C186.283 18.8583 185.792 19.5699 185.262 20.1969C184.732 20.824 184.179 21.3365 183.608 21.7347C183.034 22.1329 182.463 22.3823 181.89 22.4853C180.727 22.3503 179.839 21.9727 179.225 21.3549C178.611 20.737 178.304 19.8857 178.304 18.8011C178.304 18.2244 178.392 17.5997 178.57 16.92C178.747 16.2427 178.982 15.5699 179.277 14.8994C179.571 14.2312 179.917 13.5791 180.313 12.9429C180.709 12.309 181.13 11.7369 181.576 11.2289C182.022 10.7209 182.472 10.2884 182.927 9.93371C183.382 9.57902 183.828 9.35019 184.265 9.24721" fill="white"/>
<path d="M198.255 11.4304C197.8 11.4991 197.329 11.6844 196.839 11.9888C196.35 12.2931 195.893 12.7005 195.463 13.2085C195.033 13.7165 194.641 14.3092 194.289 14.9865C193.936 15.6639 193.656 16.3916 193.456 17.1719C194.803 16.4946 195.922 15.6593 196.817 14.6684C197.709 13.6776 198.189 12.5975 198.257 11.4281M200 10.5906C199.932 11.641 199.747 12.5426 199.445 13.2954C199.142 14.0483 198.708 14.7096 198.143 15.2771C197.579 15.8447 196.892 16.3572 196.084 16.8149C195.276 17.2726 194.332 17.712 193.256 18.1353C193.256 18.236 193.251 18.3435 193.242 18.4534C193.233 18.5632 193.228 18.6776 193.228 18.7966C193.228 19.0163 193.244 19.2451 193.278 19.4831C193.313 19.7211 193.372 19.9408 193.456 20.1445C193.54 20.3481 193.658 20.5129 193.809 20.6387C193.961 20.7669 194.154 20.8287 194.389 20.8287C194.844 20.8287 195.29 20.728 195.727 20.5243C196.164 20.3207 196.582 20.0712 196.978 19.776C197.374 19.4808 197.745 19.1582 198.091 18.8104C198.437 18.4625 198.744 18.1467 199.012 17.8584C199.181 18.0117 199.324 18.1559 199.442 18.2909C198.685 19.3069 197.854 20.149 196.953 20.8195C196.052 21.4877 195.197 21.9156 194.389 22.1033C193.226 21.9683 192.321 21.5404 191.672 20.8195C191.024 20.101 190.7 19.2314 190.7 18.2154C190.7 17.522 190.798 16.8149 190.992 16.0941C191.185 15.3733 191.454 14.6799 191.799 14.0117C192.145 13.3435 192.548 12.7119 193.012 12.1192C193.474 11.5265 193.972 11.0094 194.503 10.57C195.033 10.1307 195.581 9.78283 196.145 9.52882C196.71 9.27482 197.269 9.14667 197.825 9.14667C198.598 9.24735 199.324 9.7302 199.998 10.5952" fill="white"/>
<path d="M141.326 12.6755C140.72 12.6755 140.281 12.5793 140.013 12.3825C139.744 12.188 139.608 11.8791 139.608 11.4558C139.608 11.1857 139.658 10.8722 139.76 10.5153C140.081 10.5656 140.388 10.5908 140.682 10.5908H144.989C145.394 10.5908 145.688 10.7349 145.874 11.0233C146.059 11.3116 146.236 11.8036 146.404 12.4947C145.915 12.4283 145.517 12.394 145.205 12.394H143.551C142.962 13.3437 142.284 14.362 141.517 15.4558C140.75 16.5473 139.926 17.5862 139.041 18.5679C138.156 19.5496 137.235 20.4261 136.274 21.1973C135.314 21.9684 134.354 22.5062 133.394 22.8105C132.736 22.7419 132.14 22.5817 131.601 22.3277C131.061 22.0737 130.59 21.7556 130.185 21.3757C129.78 20.9936 129.462 20.5542 129.225 20.0554C128.989 19.5565 128.854 19.0187 128.82 18.4421C128.836 17.6457 129 16.854 129.312 16.0668C129.623 15.2796 130.024 14.5473 130.511 13.87C131 13.1926 131.551 12.5839 132.165 12.0416C132.779 11.4992 133.398 11.0667 134.022 10.7464C133.398 10.4764 132.957 10.1537 132.695 9.7807C132.434 9.4077 132.304 9.00266 132.304 8.56101C132.304 7.95231 132.518 7.31157 132.948 6.64337C133.378 5.97518 133.913 5.35275 134.552 4.77608C135.191 4.20171 135.878 3.70514 136.611 3.29095C137.344 2.87676 138.013 2.61817 138.62 2.5152C138.789 2.54952 139.028 2.65479 139.339 2.83328C139.651 3.01177 139.958 3.22687 140.261 3.48088C140.563 3.73489 140.837 3.99347 141.082 4.25663C141.326 4.51979 141.465 4.74405 141.499 4.9294C141.465 5.13307 141.394 5.3619 141.285 5.61591C141.176 5.86991 141.037 6.11934 140.868 6.36648C140.7 6.61134 140.523 6.84475 140.338 7.06443C140.154 7.28411 139.967 7.4626 139.783 7.59761C139.615 7.54727 139.515 7.4626 139.48 7.34361C139.683 7.13994 139.876 6.84933 140.061 6.46717C140.245 6.08502 140.338 5.72575 140.338 5.38707C140.338 5.20172 140.295 5.07815 140.213 5.01865C140.129 4.95915 139.995 4.9294 139.808 4.9294C139.337 4.9294 138.814 5.11705 138.243 5.48776C137.669 5.86076 137.134 6.32529 136.638 6.88594C136.142 7.44429 135.724 8.04155 135.387 8.67771C135.05 9.31387 134.882 9.89283 134.882 10.4169C135.066 10.4329 135.289 10.4901 135.551 10.5816C135.812 10.6754 136.07 10.7899 136.322 10.9249C136.575 11.0599 136.798 11.204 136.991 11.3574C137.185 11.5107 137.307 11.6457 137.357 11.7647C136.531 11.9684 135.769 12.3665 135.071 12.9592C134.372 13.5519 133.769 14.2292 133.264 14.9913C132.759 15.7533 132.368 16.5496 132.09 17.3803C131.812 18.211 131.674 18.9547 131.674 19.616C131.674 20.2087 131.801 20.6961 132.054 21.076C132.306 21.4581 132.702 21.6481 133.241 21.6481C133.696 21.6481 134.188 21.4993 134.72 21.2041C135.25 20.9089 135.799 20.5107 136.363 20.0096C136.927 19.5107 137.492 18.9432 138.056 18.3071C138.62 17.6709 139.169 17.021 139.699 16.3505C140.229 15.6823 140.725 15.021 141.189 14.3688C141.653 13.7167 142.07 13.1194 142.441 12.5771C142.288 12.6114 142.124 12.6366 141.949 12.6526C141.772 12.6686 141.567 12.6777 141.33 12.6777" fill="white"/>
<path d="M75.2285 16.1463C75.2285 14.9587 75.3674 13.7939 75.6449 12.6498C75.9225 11.5056 76.3139 10.4186 76.8191 9.39344C77.3242 8.36826 77.9272 7.42546 78.6257 6.56962C79.3243 5.71378 80.0911 4.97236 80.9239 4.34306C81.7567 3.71606 82.6463 3.22864 83.5883 2.88081C84.5304 2.53298 85.4997 2.35907 86.494 2.35907C87.6567 2.35907 88.5601 2.60392 89.2086 3.09592C89.857 3.58791 90.1802 4.27213 90.1802 5.15314C90.1802 5.49181 90.1346 5.83964 90.0414 6.19433C89.9481 6.54903 89.8138 6.90143 89.6363 7.24926C89.4589 7.59709 89.2541 7.93119 89.0174 8.25156C88.7808 8.57421 88.5214 8.85339 88.2347 9.08909C87.7955 9.02044 87.4178 8.82135 87.097 8.49183C86.7762 8.16231 86.5759 7.77558 86.4917 7.33622C87.0811 6.84422 87.5475 6.33392 87.8934 5.79845C88.2392 5.26527 88.4122 4.77785 88.4122 4.33849C88.4122 3.59249 87.948 3.22178 87.0219 3.22178C86.6351 3.22178 86.2346 3.30187 85.8228 3.46205C85.4109 3.62224 84.9923 3.84649 84.5713 4.13482C84.1504 4.42316 83.7408 4.77098 83.3472 5.17602C82.9512 5.58335 82.5849 6.03186 82.2481 6.52157C79.9068 9.90832 78.7372 13.3729 78.7372 16.9129C78.7372 18.1669 78.9306 19.1738 79.3174 19.9358C79.7042 20.6979 80.2185 21.1464 80.8579 21.2814C81.5814 21.112 82.5007 20.6475 83.6111 19.8832C84.7215 19.1212 85.9343 18.1303 87.2494 16.9106C87.4178 17.08 87.5179 17.2585 87.5521 17.4438C87.0629 18.0846 86.5577 18.7001 86.0367 19.2905C85.5133 19.8809 84.9968 20.421 84.4826 20.9084C83.9683 21.3981 83.4632 21.826 82.9672 22.199C82.4711 22.5697 82.0115 22.8558 81.5905 23.0594C79.5017 23.0594 77.9181 22.4736 76.8418 21.3043C75.7633 20.1349 75.224 18.4118 75.224 16.1418" fill="white"/>
<path d="M93.4114 13.9954C93.1247 14.3845 92.8562 14.8078 92.6036 15.2655C92.351 15.7231 92.1326 16.1854 91.946 16.6499C91.7594 17.1167 91.6184 17.5653 91.516 17.9955C91.4159 18.428 91.3635 18.8124 91.3635 19.1511C91.3635 19.5584 91.4295 19.9474 91.566 20.3204C91.7003 20.6934 91.8527 20.904 92.0211 20.9543C92.7788 20.785 93.4728 20.4669 94.1054 20.0023C94.7357 19.5378 95.284 18.9566 95.7482 18.2632C96.2124 17.5698 96.5742 16.7804 96.8336 15.8993C97.0952 15.0183 97.2249 14.0778 97.2249 13.0801C97.2249 12.6407 97.1999 12.2929 97.1499 12.0389C97.0998 11.7849 97.0156 11.5652 96.8973 11.3776C96.1555 11.5973 95.4956 11.9542 94.9154 12.4439C94.3352 12.9359 93.8323 13.4508 93.4114 13.9932M92.1235 21.9955C91.1633 21.8948 90.3965 21.4715 89.8254 20.7255C89.252 19.9795 88.9675 19.0321 88.9675 17.8811C88.9675 17.2037 89.0677 16.5012 89.2702 15.7735C89.4727 15.0458 89.7594 14.3387 90.128 13.6522C90.4989 12.9657 90.9357 12.3181 91.4409 11.7094C91.946 11.0984 92.4921 10.5744 93.0837 10.135C94.0098 9.44164 94.8767 9.09381 95.6845 9.09381C96.2238 9.38214 96.7539 9.98398 97.275 10.897C97.3592 10.897 97.4343 10.8924 97.5025 10.8833C97.5708 10.8741 97.6459 10.8696 97.7301 10.8696C98.622 10.8696 99.068 11.6659 99.068 13.2586C99.068 14.325 98.8951 15.3387 98.5492 16.2952C98.2034 17.2518 97.7233 18.1213 97.1089 18.8994C96.4945 19.6797 95.7619 20.3342 94.9109 20.8673C94.0599 21.4005 93.1292 21.7781 92.119 21.9978" fill="white"/>
<path d="M100.561 20.6016C100.645 20.1097 100.793 19.4621 101.003 18.6588C101.214 17.8556 101.462 16.9998 101.749 16.0936C102.036 15.1874 102.338 14.2767 102.659 13.3636C102.98 12.4483 103.289 11.6268 103.594 10.8991C103.813 10.375 104.006 9.96313 104.174 9.66794C104.343 9.37274 104.527 9.12102 104.73 8.91736C104.966 8.95168 105.21 9.01118 105.462 9.09585C105.715 9.18052 105.958 9.28121 106.195 9.4002C106.432 9.51919 106.641 9.64276 106.828 9.76862C107.012 9.89448 107.155 10.0181 107.258 10.137C106.803 10.6794 106.402 11.2972 106.059 11.9906C105.713 12.6863 105.365 13.5741 105.01 14.6588C105.92 13.8465 106.723 13.0661 107.421 12.3224C108.12 11.5764 108.773 10.748 109.378 9.8327C109.478 9.74803 109.656 9.70684 109.908 9.70684C110.145 9.70684 110.37 9.74574 110.591 9.82125C110.81 9.89677 110.962 10.0043 111.046 10.1393C110.744 10.9517 110.591 11.7572 110.591 12.5535C110.591 13.2995 110.7 13.8579 110.919 14.2309C110.903 14.3316 110.789 14.5284 110.577 14.8144C110.366 15.1028 110.136 15.3728 109.883 15.6268C109.428 15.3888 109.026 15.0639 108.671 14.6497C108.318 14.2355 108.056 13.7824 107.888 13.2904C107.096 13.8487 106.423 14.3957 105.867 14.9288C105.312 15.462 104.837 16.0547 104.441 16.7069C104.045 17.3591 103.708 18.1096 103.43 18.954C103.153 19.8007 102.887 20.8076 102.634 21.9769C102.482 21.9609 102.302 21.9037 102.09 21.8122C101.879 21.7184 101.669 21.6039 101.46 21.4689C101.248 21.3339 101.059 21.1897 100.891 21.0364C100.723 20.8831 100.613 20.7412 100.563 20.6039" fill="white"/>
<path d="M115.402 21.4647C115.992 21.261 116.581 20.8125 117.17 20.1191C117.76 19.4258 118.29 18.6066 118.761 17.6683C119.232 16.7278 119.616 15.7209 119.91 14.6454C120.206 13.5699 120.351 12.5333 120.351 11.5333V11.0001C120.351 10.9314 120.342 10.8651 120.326 10.7964C119.921 10.9658 119.493 11.2541 119.038 11.6591C118.583 12.0665 118.128 12.5356 117.675 13.0688C117.22 13.6019 116.79 14.1832 116.387 14.8079C115.982 15.4349 115.621 16.0619 115.302 16.6889C114.981 17.3159 114.729 17.9178 114.544 18.4921C114.36 19.0688 114.267 19.5768 114.267 20.0162C114.267 20.8629 114.647 21.3457 115.405 21.4647M117.98 9.24492C118.317 9.24492 118.704 9.34561 119.143 9.54927C119.58 9.75294 119.969 10.0161 120.306 10.3365C120.222 9.65911 120.117 9.02066 119.989 8.41883C119.862 7.81699 119.678 7.19456 119.434 6.55154C119.191 5.90851 118.865 5.20599 118.463 4.44397C118.058 3.68195 117.552 2.81009 116.947 1.82839C116.997 1.67507 117.111 1.49887 117.289 1.2952C117.466 1.09154 117.669 0.901609 117.894 0.723118C118.121 0.544627 118.356 0.389019 118.601 0.254007C118.845 0.118994 119.077 0.0343252 119.295 0C119.766 0.524031 120.212 1.18079 120.633 1.96798C121.054 2.75517 121.425 3.60186 121.744 4.50804C122.065 5.41423 122.313 6.35016 122.49 7.31585C122.668 8.28153 122.756 9.20373 122.756 10.0847C122.756 10.9658 122.658 11.8719 122.465 12.8033C122.272 13.7347 122.001 14.6454 121.657 15.5333C121.311 16.4235 120.911 17.2656 120.458 18.0619C120.003 18.8583 119.512 19.5699 118.981 20.1969C118.451 20.824 117.898 21.3365 117.327 21.7347C116.754 22.1329 116.183 22.3823 115.609 22.4853C114.447 22.3503 113.559 21.9727 112.945 21.3549C112.33 20.737 112.023 19.8857 112.023 18.8011C112.023 18.2244 112.112 17.5997 112.29 16.92C112.467 16.2427 112.701 15.5699 112.997 14.8994C113.291 14.2312 113.637 13.5791 114.032 12.9429C114.428 12.309 114.849 11.7369 115.295 11.2289C115.741 10.7209 116.192 10.2884 116.647 9.93371C117.102 9.57902 117.548 9.35019 117.985 9.24721" fill="white"/>
<path d="M64.9576 22.4397C61.9404 22.4374 59.4989 19.9751 59.5012 16.9408C59.5012 15.4396 60.1156 14.0071 61.1941 12.9705C61.3579 12.8126 61.6105 12.7943 61.7948 12.9247C63.6857 14.2817 66.225 14.2817 68.1159 12.9247C68.3002 12.792 68.5527 12.8126 68.7166 12.9705C69.1921 13.4259 69.5812 13.9636 69.8679 14.5586C70.0431 14.9225 70.1774 15.3069 70.2684 15.7028C70.3617 16.1101 70.4095 16.5289 70.4095 16.9476C70.4163 19.9751 67.9793 22.4328 64.969 22.4397H64.9553H64.9576Z" fill="#ECD634"/>
<path d="M64.9571 2.95886C61.9444 2.95886 59.5029 5.41654 59.5029 8.44631V8.45089C59.5029 9.95204 60.1127 11.3891 61.1935 12.4257C61.3574 12.5836 61.6099 12.6042 61.7965 12.4715C63.6874 11.1145 66.2267 11.1145 68.1176 12.4715C68.3042 12.6042 68.5567 12.5836 68.7206 12.4257C70.9027 10.3319 70.9846 6.85591 68.9026 4.66139C67.8764 3.579 66.4565 2.96573 64.9707 2.96115H64.9571" fill="#ECD634"/>
</svg>
